<svg xmlns="http://www.w3.org/2000/svg" viewBox="0 0 64 64">
	<defs>
		<linearGradient id="g" x1="0" y1="0" x2="1" y2="1">
			<stop offset="0%" stop-color="#0f172a" />
			<stop offset="100%" stop-color="#1e3a8a" />
		</linearGradient>
	</defs>
	<rect width="64" height="64" rx="14" fill="url(#g)" />
	<path d="M18 14h15c8.2 0 13 4 13 10.4 0 4-1.9 6.8-5.8 8.3 4.8 1.2 7.2 4.5 7.2 9.1C47.4 49 41.5 54 31.8 54H18V14zm12.6 15.3c4 0 6.3-1.6 6.3-4.6 0-2.9-2.2-4.4-6.3-4.4h-4.1v9h4.1zm1.1 17.9c4.6 0 7.2-1.8 7.2-5.2 0-3.2-2.5-5-7.2-5h-5.2v10.2h5.2z" fill="#f8fafc"/>
	<path d="M44 14h6v40h-6z" fill="#38bdf8" />
</svg>